<?xml version="1.0" encoding="utf-8"?>
<!-- Generator: Adobe Illustrator 26.0.3, SVG Export Plug-In . SVG Version: 6.00 Build 0)  -->
<svg version="1.1" xmlns="http://www.w3.org/2000/svg" xmlns:xlink="http://www.w3.org/1999/xlink" x="0px" y="0px"
	 viewBox="0 0 20 20" style="enable-background:new 0 0 20 20;" xml:space="preserve">
<style type="text/css">
	.st0{fill:#FED11D;}
	.st1{fill:#FFDAFF;}
	.st2{fill:#FF1FFF;}
	.st3{fill:#10AFC5;}
</style>
<g id="レイヤー_1">
	
		<image style="overflow:visible;" width="360" height="270" xlink:href="ログアウト.jpg"  transform="matrix(1 0 0 1 263.049 -62.5535)">
	</image>
</g>
<g id="レイヤー_2">
	<path class="st0" d="M480.2,57.65l-12.63-12.63c-1.28-1.28-3.38-1.28-4.67,0l-0.83,0.83c-1.28,1.28-1.28,3.38,0,4.67l6.02,6.02
		h-21.75c-1.81,0-3.3,1.49-3.3,3.3v1.17c0,1.82,1.49,3.3,3.3,3.3h21.68l-5.95,5.95c-1.28,1.28-1.28,3.38,0,4.67l0.83,0.83
		c1.28,1.28,3.38,1.28,4.67,0l12.63-12.63c0.74-0.74,0.95-1.7,0.92-2.74C481.15,59.34,480.95,58.4,480.2,57.65z"/>
	<path class="st1" d="M234.77-105.54h-47.3c-2.2,0-4,1.8-4,4v52.39c0,2.2,1.8,4,4,4h47.3c2.2,0,4-1.8,4-4v-52.39
		C238.77-103.74,236.97-105.54,234.77-105.54z M230.77-55.16c0,1.1-0.9,2-2,2h-35.3c-1.1,0-2-0.9-2-2v-40.39c0-1.1,0.9-2,2-2h35.3
		c1.1,0,2,0.9,2,2V-55.16z"/>
	<path class="st1" d="M217.87-31.9c0,1.65-1.22,2.42-2.71,1.72l-28.97-13.69c-1.49-0.71-2.71-2.63-2.71-4.28v-54.39
		c0-1.65,1.21-2.4,2.69-1.66l29.02,14.44c1.48,0.73,2.69,2.69,2.69,4.34V-31.9z"/>
	<g>
		<path class="st2" d="M256.34-78.57c0,1.82-1.48,3.3-3.3,3.3h-26.84c-1.82,0-3.3-1.49-3.3-3.3v-1.17c0-1.82,1.49-3.3,3.3-3.3h26.84
			c1.82,0,3.3,1.49,3.3,3.3V-78.57z"/>
	</g>
	<g>
		<path class="st2" d="M260.05-81.12c1.28,1.28,1.28,3.38,0,4.67l-12.63,12.63c-1.28,1.28-3.38,1.28-4.67,0l-0.83-0.83
			c-1.28-1.28-1.28-3.38,0-4.67l12.63-12.63c1.28-1.28,3.38-1.28,4.67,0L260.05-81.12z"/>
	</g>
	<g>
		<path class="st2" d="M242.75-94.56c1.28-1.28,3.38-1.28,4.67,0l12.63,12.63c1.28,1.28,1.28,3.38,0,4.67l-0.83,0.83
			c-1.28,1.28-3.38,1.28-4.67,0l-12.63-12.63c-1.28-1.28-1.28-3.38,0-4.67L242.75-94.56z"/>
	</g>
	<path class="st3" d="M458.92,51.53V38.04c0-2.2-1.8-4-4-4h-47.3c-1.06,0-2.01,0.42-2.73,1.1c-0.76,0.15-1.27,0.84-1.27,1.9v1v52.39
		v1c0,1.65,1.22,3.58,2.71,4.28l28.97,13.69c1.49,0.71,2.71-0.07,2.71-1.72V94.42h16.9c2.2,0,4-1.8,4-4V69.4h-8v15.02
		c0,1.1-0.9,2-2,2h-10.9V54.15c0-1.65-1.21-3.6-2.69-4.34l-15.63-7.78h29.22c1.1,0,2,0.9,2,2v7.49H458.92z"/>
	<g>
		<path class="st0" d="M19.71,6.35l-3.24-3.24c-0.33-0.33-0.87-0.33-1.2,0l-0.21,0.21c-0.33,0.33-0.33,0.87,0,1.2l1.54,1.54h-5.58
			c-0.47,0-0.85,0.38-0.85,0.85v0.3c0,0.47,0.38,0.85,0.85,0.85h5.57l-1.53,1.53c-0.33,0.33-0.33,0.87,0,1.2L15.27,11
			c0.33,0.33,0.87,0.33,1.2,0l3.24-3.24c0.19-0.19,0.24-0.44,0.24-0.7C19.96,6.79,19.9,6.55,19.71,6.35z"/>
		<path class="st3" d="M14.25,4.78V1.32c0-0.56-0.46-1.03-1.03-1.03H1.08c-0.27,0-0.54,0.04-0.75,0.2c-0.17,0.12-0.28,0.3-0.28,0.58
			v0.26v13.45v0.26c0,0.42,0.31,0.92,0.7,1.1l7.44,3.52c0.38,0.18,0.7-0.02,0.7-0.44v-3.4h4.34c0.56,0,1.03-0.46,1.03-1.03v-5.4
			h-2.05v3.86c0,0.28-0.23,0.51-0.51,0.51h-2.8V5.46c0-0.42-0.31-0.92-0.69-1.11l-4.01-2h7.5c0.28,0,0.51,0.23,0.51,0.51v1.92H14.25
			z"/>
	</g>
</g>
</svg>
