<?xml version="1.0" encoding="utf-8"?>
<!-- Generator: Adobe Illustrator 26.0.3, SVG Export Plug-In . SVG Version: 6.00 Build 0)  -->
<svg version="1.1" id="_x31_0" xmlns="http://www.w3.org/2000/svg" xmlns:xlink="http://www.w3.org/1999/xlink" x="0px" y="0px"
	 viewBox="0 0 512 512" style="enable-background:new 0 0 512 512;" xml:space="preserve">
<style type="text/css">
	.st0{fill:#333333;}
</style>
<g>
	<polygon class="st0" points="257.1,94.3 257.1,94.4 340.3,94.4 340.3,204.8 376.4,204.8 376.4,59 376.4,58.5 376.4,58.5 
		376.4,58.4 257.1,58.4 257.1,94.2 	"/>
	<polygon class="st0" points="376.4,307.4 376.4,307.2 340.3,307.2 340.3,417.6 257.1,417.6 257.1,453.3 257.1,453.5 257.1,453.5 
		257.1,453.6 376.4,453.6 376.4,307.8 	"/>
	<path class="st0" d="M509.6,251.1L424.9,187c-1.1-0.9-2.4-1.2-3.7-1.2c-3.2,0-6.2,2.5-6.2,6.2v27.3c0,3.4-2.8,6.2-6.2,6.2h-32.5
		h-36.1h-18.6c-3.4,0-6.1,2.7-6.1,6.1v48.9c0,3.4,2.7,6.1,6.1,6.1h18.6h36.1h32.5c3.4,0,6.2,2.8,6.2,6.2v27.3c0,3.7,3,6.2,6.2,6.2
		c1.2,0,2.5-0.4,3.7-1.2l84.7-64.1C512.8,258.4,512.8,253.6,509.6,251.1z"/>
	<path class="st0" d="M204.7,11.4c-2.4,0.1-4.9,0.4-7.5,1.1L38.3,58.4l-10.3,3l-12.2,3.5C6.4,67.6,0,76.2,0,86.1V426
		c0,9.8,6.4,18.4,15.9,21.2l12.2,3.5l10.3,3l158.8,45.9c2.5,0.7,5.1,1.1,7.5,1.1c14.3,0,26.7-11.6,26.7-26.8v-20.1v-36.1V94.4v-36
		V38.2C231.3,23,218.9,11.4,204.7,11.4z M159.5,277.4v-42.7c0-2.8,2.3-5,5.1-5h16.7c2.8,0,5,2.2,5,5v42.7c0,2.8-2.2,5-5,5h-16.7
		C161.8,282.4,159.5,280.1,159.5,277.4z"/>
</g>
</svg>
