<?xml version="1.0" encoding="utf-8"?>
<!-- Generator: Adobe Illustrator 26.0.3, SVG Export Plug-In . SVG Version: 6.00 Build 0)  -->
<svg version="1.1" id="_x32_" xmlns="http://www.w3.org/2000/svg" xmlns:xlink="http://www.w3.org/1999/xlink" x="0px" y="0px"
	 viewBox="0 0 512 512" style="enable-background:new 0 0 512 512;" xml:space="preserve">
<style type="text/css">
	.st0{fill:#FFFFFF;}
</style>
<g>
	<path class="st0" d="M383.3,0H128.7C97.4,0,72,25.4,72,56.7v398.6c0,31.3,25.4,56.7,56.7,56.7h254.6c31.3,0,56.7-25.4,56.7-56.7
		V56.7C440,25.4,414.6,0,383.3,0z M260,484c-8.1,0-14.7-6.6-14.7-14.7c0-8.1,6.6-14.7,14.7-14.7s14.7,6.6,14.7,14.7
		C274.7,477.4,268.1,484,260,484z M392,424H120V64h272V424z"/>
</g>
</svg>
